<?xml version="1.0" encoding="utf-8"?>
<!-- Generator: Adobe Illustrator 23.0.2, SVG Export Plug-In . SVG Version: 6.00 Build 0)  -->
<svg version="1.1" id="Layer_3" xmlns="http://www.w3.org/2000/svg" xmlns:xlink="http://www.w3.org/1999/xlink" x="0px" y="0px"
	 viewBox="0 0 23.8 23.7" style="enable-background:new 0 0 23.8 23.7;" xml:space="preserve">
<style type="text/css">
	.st0{fill:url(#SVGID_1_);}
	.st1{fill:url(#SVGID_2_);}
	.st2{fill:url(#SVGID_3_);}
	.st3{fill:#F05824;}
	.st4{fill:#FFFFFF;}
</style>
<linearGradient id="SVGID_1_" gradientUnits="userSpaceOnUse" x1="5.1252" y1="4.6847" x2="18.1486" y2="18.4083">
	<stop  offset="0" style="stop-color:#FAAC1B"/>
	<stop  offset="1" style="stop-color:#F05824"/>
</linearGradient>
<circle class="st0" cx="11.9" cy="11.8" r="11.5"/>
<linearGradient id="SVGID_2_" gradientUnits="userSpaceOnUse" x1="12.3353" y1="13.3877" x2="6.7855" y2="7.0979">
	<stop  offset="0" style="stop-color:#FAAC1B"/>
	<stop  offset="1" style="stop-color:#F05824"/>
</linearGradient>
<circle class="st1" cx="11.4" cy="12.3" r="9"/>
<linearGradient id="SVGID_3_" gradientUnits="userSpaceOnUse" x1="5.8088" y1="6.5466" x2="16.9996" y2="18.1073">
	<stop  offset="0" style="stop-color:#FAAC1B"/>
	<stop  offset="1" style="stop-color:#F05824"/>
</linearGradient>
<circle class="st2" cx="11.4" cy="12.3" r="8"/>
<path class="st3" d="M15.7,3.8c0,0,0.6,0.7,0.8,1.4c0.1,0.5,0.1,1-0.3,1.4C16,6.8,15.7,7,15.7,7.2c0,0-0.8-0.3-0.9-1.3
	C14.7,4.9,15.6,4.9,15.7,3.8z"/>
<path class="st3" d="M15.8,7.9C15.8,7.9,15.8,7.9,15.8,7.9c0,0.6-0.2,1.3-1.1,1.5c-0.4,0.1-0.9,0-1.2-0.3c-0.1-0.1-0.2-0.3-0.3-0.5
	c-0.1-0.2-0.1-0.6,0.1-1.1c1.4-3.8-2.2-5.7-2.2-5.7c0.5,2.8-0.8,3.5-1.9,4.7c-1.1,1.2-2.9,2.4-2.9,5.6c0,4.6,5.9,5.9,5.9,5.9
	c0.6-1.3,1.6-1.6,2.3-1.9c0.9-0.4,1.9-1,2.4-1.8C18.8,11.2,15.8,7.9,15.8,7.9z M15.4,12.3h-2v2h-2v-2h-2v-2h6V12.3z"/>
<path class="st4" d="M15.3,3.5c0,0,0.6,0.7,0.8,1.4c0.1,0.5,0.1,1-0.3,1.4c-0.2,0.2-0.5,0.4-0.5,0.6c0,0-0.8-0.3-0.9-1.3
	S15.3,4.6,15.3,3.5z"/>
<path class="st4" d="M15.5,7.6C15.5,7.6,15.5,7.6,15.5,7.6c0,0.6-0.2,1.3-1.1,1.5c-0.4,0.1-0.9,0-1.2-0.3c-0.1-0.1-0.2-0.3-0.3-0.5
	c-0.1-0.2-0.1-0.6,0.1-1.1c1.4-3.8-2.2-5.7-2.2-5.7c0.5,2.8-0.8,3.5-1.9,4.7C7.8,7.4,6,8.5,6,11.8c0,4.6,5.9,5.9,5.9,5.9
	c0.6-1.3,1.6-1.6,2.3-1.9c0.9-0.4,1.9-1,2.4-1.8C18.4,10.9,15.5,7.6,15.5,7.6z M14.4,12.3h-2v2h-2v-2h-2v-2h6V12.3z"/>
</svg>
